<?xml version="1.0" encoding="utf-8"?>
<!-- Generator: Adobe Illustrator 18.1.0, SVG Export Plug-In . SVG Version: 6.00 Build 0)  -->
<svg version="1.1" id="Layer_1" xmlns="http://www.w3.org/2000/svg" xmlns:xlink="http://www.w3.org/1999/xlink" x="0px" y="0px"
	 viewBox="0 0 18.5 17" enable-background="new 0 0 18.5 17" xml:space="preserve">
<path fill="#FFF8DC" d="M4.1,17H0.5V5.5h3.6V17z M2.2,4L2.2,4C0.8,4,0,3.1,0,2c0-1.1,0.9-2,2.2-2c1.3,0,2.2,0.9,2.2,2
	C4.4,3.1,3.5,4,2.2,4z M18.5,17h-4.1v-6c0-1.6-0.6-2.6-2-2.6c-1.1,0-1.7,0.7-2,1.4c-0.1,0.2-0.1,0.6-0.1,0.9V17H6.3
	c0,0,0.1-10.6,0-11.6h4.1v1.8c0.2-0.8,1.5-1.9,3.6-1.9c2.6,0,4.6,1.7,4.6,5.2L18.5,17L18.5,17z"/>
</svg>
